<?xml version="1.0" encoding="UTF-8"?>
<svg xmlns="http://www.w3.org/2000/svg" xmlns:xlink="http://www.w3.org/1999/xlink" viewBox="0 0 179 53">
  <defs>
    <path id="a" d="M114.058 42.739c.268-1.425 1.783-2.264 3.17-1.783 1.085.375 1.761 1.453 1.59 2.573a4.55 4.55 0 0 0-.056.779c.022 1.265.568 2.234 1.348 2.97.766.722 1.65 1.216 2.83 1.542 1.172.325 1.832 1.533 1.449 2.66-.35 1.026-1.446 1.615-2.527 1.373-2.093-.469-3.837-1.286-5.304-2.641-1.44-1.357-2.595-3.296-2.638-5.826-.01-.578.04-1.128.138-1.647zm3.01-9.524a2.204 2.204 0 0 1 3.058.136c.819.873 1.681 1.357 2.715 1.711.457.158 1.23.238 1.697.24h4.774c3.47 0 6.744 1.238 8.45 2.867 1.417 1.38 2.539 3.337 2.539 5.868 0 2.53-1.122 4.488-2.539 5.867-1.67 1.596-3.833 2.416-6.447 2.95-1.081.241-2.177-.348-2.527-1.374-.383-1.127.277-2.335 1.449-2.66 1.482-.367 2.996-.888 3.924-1.792.767-.748 1.24-1.725 1.24-2.991s-.485-2.232-1.24-2.991c-1.083-1.092-3.794-1.582-5.681-1.56h-4.258c-.96-.006-1.905-.074-2.82-.387-1.696-.583-3.146-1.592-4.436-2.969-.806-.86-.78-2.13.102-2.915zM8.14 11.853c1.201-.548 2.627.05 3.066 1.27.351.978-.105 2.043-1.047 2.526-2.985 1.53-5.095 4.425-5.095 9.351v2.106c0 4.927 2.11 7.821 5.095 9.352.942.483 1.398 1.548 1.047 2.527-.44 1.22-1.865 1.817-3.066 1.27-2.384-1.088-4.59-2.825-5.836-4.882C.65 32.67 0 29.563 0 26.053c0-3.51.65-6.616 2.303-9.32 1.245-2.056 3.452-3.793 5.836-4.88zm13.867 20.165h.191a2.278 2.278 0 0 1 1.93 3.385c-.825 1.523-2.163 2.858-3.583 3.816-.6.396-1.241.746-1.919 1.047-1.181.525-2.572-.064-3.001-1.259a2.053 2.053 0 0 1 1.024-2.53 7.982 7.982 0 0 0 3.308-3.126c.528-.906 1.27-1.368 2.241-1.333zm49.297-20.165c1.201-.548 2.627.05 3.066 1.27.351.978-.106 2.043-1.048 2.526-2.984 1.53-5.094 4.425-5.094 9.351v2.106c0 4.927 2.11 7.821 5.094 9.352.942.483 1.4 1.548 1.048 2.527-.44 1.22-1.865 1.817-3.066 1.27-2.384-1.088-4.59-2.825-5.836-4.882-1.653-2.703-2.303-5.81-2.303-9.32 0-3.51.65-6.616 2.303-9.32 1.245-2.056 3.452-3.793 5.836-4.88zM85.17 32.018h.191a2.278 2.278 0 0 1 1.93 3.385c-.826 1.523-2.163 2.858-3.583 3.816-.6.396-1.241.746-1.919 1.047-1.181.525-2.572-.064-3.001-1.259a2.053 2.053 0 0 1 1.024-2.53 7.982 7.982 0 0 0 3.308-3.126c.527-.906 1.27-1.368 2.241-1.333zM34.701 11.937c1.39 0 2.517 1.098 2.517 2.453v23.616c0 1.355-1.126 2.453-2.517 2.453-1.39 0-2.517-1.098-2.517-2.453V14.39c0-1.355 1.127-2.453 2.517-2.453zm63.163 0c1.39 0 2.517 1.098 2.517 2.453v23.616c0 1.355-1.127 2.453-2.517 2.453s-2.517-1.098-2.517-2.453V14.39c0-1.355 1.126-2.453 2.517-2.453zm51.416 0c1.39 0 2.517 1.098 2.517 2.453v23.616c0 1.355-1.126 2.453-2.517 2.453-1.39 0-2.517-1.098-2.517-2.453V14.39c0-1.355 1.127-2.453 2.517-2.453zm13.422 0c1.39 0 2.517 1.098 2.517 2.453v23.616c0 1.355-1.126 2.453-2.517 2.453-1.39 0-2.517-1.098-2.517-2.453V14.39c0-1.355 1.127-2.453 2.517-2.453zm-119.963.62c2.65-1.27 4.892-1.153 4.893-1.153 6.387.076 8.982 4.116 8.982 10.927v15.674c0 1.355-1.127 2.454-2.518 2.454-1.39 0-2.517-1.099-2.517-2.454V23.036c0-3.908-.363-6.46-3.957-7.044-1.56-.254-2.659.106-4.355 1.18a2.147 2.147 0 0 1-2.74-.372 2.106 2.106 0 0 1 .349-3.14 12.862 12.862 0 0 1 1.863-1.103zm81.639.505c.35.972-.086 2.023-.996 2.547-1.92 1.104-2.932 3.13-2.932 5.533v.735c0 2.403 1.012 4.428 2.932 5.532.91.524 1.345 1.576.996 2.548-.43 1.195-1.83 1.746-3.004 1.2A10.488 10.488 0 0 1 118.322 29c-1.712-1.743-2.834-4.295-2.834-7.49 0-3.196 1.122-5.749 2.834-7.492a10.49 10.49 0 0 1 3.052-2.156c1.173-.547 2.574.004 3.004 1.2zm14.186-1.663c1.752-.022 2.94 1.694 2.212 3.217-.41.859-1.171 1.292-2.238 1.336a8.496 8.496 0 0 0-2.046.338c.754 1.457 1.197 3.211 1.197 5.22 0 3.195-1.122 5.747-2.834 7.49a10.494 10.494 0 0 1-3.052 2.157c-1.174.546-2.574-.005-3.004-1.2-.35-.972.086-2.024.996-2.548 1.92-1.104 2.931-3.129 2.931-5.532v-.735c0-2.404-1.012-4.429-2.93-5.533-.91-.524-1.346-1.575-.997-2.547.43-1.196 1.83-1.747 3.004-1.2.573.267 1.107.577 1.605.928l.037-.02c1.522-.795 3.351-1.348 5.119-1.37zm-122.94 1.685a2.191 2.191 0 0 1 3-1.217c1.29.628 2.42 1.472 3.38 2.483 2.42 2.588 3.837 6.328 3.778 10.24-.032 1.63-1.398 3.027-3.07 3.027H11.066c-1.19 0-2.155-1.034-2.155-2.193 0-1.16.965-2.194 2.155-2.194h9.38c.254 0 .25-.243.25-.243 0-4.747-3.562-7.077-4.065-7.4-.885-.566-1.353-1.54-1.007-2.503zm63.164 0a2.191 2.191 0 0 1 3-1.217c1.29.628 2.42 1.472 3.38 2.483 2.42 2.588 3.837 6.328 3.778 10.24-.033 1.63-1.398 3.027-3.07 3.027H74.23c-1.19 0-2.155-1.034-2.155-2.193 0-1.16.965-2.194 2.155-2.194h9.38c.254 0 .25-.243.25-.243 0-4.747-3.563-7.077-4.065-7.4-.885-.566-1.353-1.54-1.007-2.503zm32.133-1.684c1.753-.023 2.94 1.693 2.213 3.216-.41.86-1.171 1.292-2.239 1.337a8.246 8.246 0 0 0-4.363 1.445 2.168 2.168 0 0 1-2.777-.264c-.896-.916-.8-2.39.218-3.177.583-.45 1.195-.847 1.83-1.187 1.522-.795 3.35-1.348 5.118-1.37zm64.838 0c1.753-.023 2.941 1.693 2.213 3.216-.41.86-1.17 1.292-2.238 1.337a8.241 8.241 0 0 0-4.363 1.445 2.17 2.17 0 0 1-2.778-.264c-.895-.916-.8-2.39.218-3.177.583-.45 1.196-.847 1.83-1.187 1.523-.795 3.35-1.348 5.118-1.37z"></path>
  </defs>
  <g fill="none" fill-rule="evenodd">
    <mask id="b" fill="#fff">
      <use xlink:href="#a"></use>
    </mask>
    <use fill="#002E5A" xlink:href="#a"></use>
    <path fill="#002855" d="M-3.841 36.481h183.715v44.915H-3.841z" mask="url(#b)"></path>
    <path fill="#009FE3" d="M25.592 4.5a4.5 4.5 0 1 1-9 0 4.5 4.5 0 0 1 9 0"></path>
  </g>
</svg>
